<svg width="116" height="30" viewBox="0 0 116 30" fill="none" xmlns="http://www.w3.org/2000/svg">
  <path
    d="M0.236347 14.4161C0.519529 28.0817 3.63453 36.2286 3.63453 23.3513C3.63453 18.0953 4.34249 16.5185 6.60794 16.5185C8.73181 16.5185 9.29817 17.8325 9.01499 22.3001C8.73181 25.1909 9.43976 28.3445 10.4309 28.8701C11.7052 29.6585 12.13 25.9793 12.13 15.4673C12.13 3.90405 11.7052 0.750444 9.86454 0.750444C8.30704 0.750444 7.88226 2.32725 8.59022 6.00646C9.29817 10.2113 8.8734 11.2625 6.60794 11.2625C4.62567 11.2625 3.63453 9.68568 3.63453 6.00646C3.63453 3.11565 2.78499 0.750444 1.79385 0.750444C0.519529 0.750444 0.0947558 4.95526 0.236347 14.4161Z"
    fill="black" />
  <path
    d="M14.9618 3.37847C14.9618 4.69247 15.9529 6.00648 17.0857 6.00648C18.6432 6.00648 19.2095 9.16009 19.2095 17.8325C19.2095 24.4025 19.9175 29.6586 20.6254 29.6586C21.475 29.6586 22.0413 24.4025 22.0413 17.8325C22.0413 9.16009 22.6077 6.00648 24.1652 6.00648C25.2979 6.00648 26.2891 4.69247 26.2891 3.37847C26.2891 1.80166 23.7404 0.750456 20.6254 0.750456C17.5104 0.750456 14.9618 1.80166 14.9618 3.37847Z"
    fill="black" />
  <path
    d="M28.1297 15.2045C27.9881 23.0885 28.4129 29.6586 29.2625 29.6586C29.9704 29.6586 30.5368 25.7166 30.5368 20.9861V12.5765L34.0766 20.4605C36.4836 25.9794 37.4747 27.0306 37.6163 24.1397C37.6163 21.7745 38.6075 18.3581 39.7402 16.5185C41.5809 13.6277 41.8641 14.4161 41.8641 21.5117C41.8641 25.9794 42.572 29.6586 43.28 29.6586C44.1295 29.6586 44.6959 23.0885 44.6959 15.2045C44.6959 -0.826349 42.2888 -4.24276 39.0322 7.32048C38.0411 10.9997 36.7668 13.8905 36.2004 13.8905C35.6341 13.8905 34.5013 10.9997 33.6518 7.32048C30.82 -3.97996 28.4129 -0.563549 28.1297 15.2045Z"
    fill="black" />
  <path
    d="M48.6604 15.2045L48.2357 29.6586H52.9082C55.8816 29.6586 57.4391 28.3446 57.4391 25.9794C57.4391 23.6141 56.4479 22.8257 54.6073 23.6141C52.0586 24.9281 51.7754 23.6141 51.7754 12.8393C51.7754 -4.24276 49.3684 -2.40316 48.6604 15.2045Z"
    fill="black" />
  <path
    d="M70.1823 4.69244C68.7664 7.84606 69.1911 9.68566 72.1645 14.6789C76.837 22.5629 76.837 25.4537 72.3061 23.8769C70.3239 23.0885 68.7664 23.3513 68.7664 24.6653C68.7664 28.3445 71.7398 30.1841 75.2795 28.6073C79.952 26.2421 79.6689 18.3581 74.8548 11.5253C71.0318 6.26925 71.0318 6.26925 74.1468 6.00645C75.8459 6.00645 77.2618 4.69244 77.2618 3.37844C77.2618 -0.563575 72.1645 0.224828 70.1823 4.69244Z"
    fill="black" />
  <path
    d="M83.2086 4.95526C79.3857 9.94848 79.2441 19.4093 82.7839 25.4537C85.7573 30.447 91.5625 30.1842 92.4121 25.1909C92.8368 23.3513 91.8457 22.8257 89.8634 23.6141C86.182 25.4537 82.9255 18.6209 83.9166 11.2625C84.483 7.58327 85.8989 6.00647 88.8723 6.00647C91.2793 6.00647 92.6952 4.95526 92.1289 3.37846C90.8546 -0.563557 86.89 0.224846 83.2086 4.95526Z"
    fill="black" />
  <path
    d="M95.8102 4.42969C93.6863 9.1601 95.1022 15.7301 98.642 17.3069C102.748 19.4093 102.04 25.191 97.7925 23.6142C95.527 22.8258 94.3943 23.6142 94.6775 25.4538C95.527 30.1842 101.615 28.8702 103.315 23.6142C104.589 19.6721 104.164 17.8325 100.624 12.3137C96.6597 6.26929 96.5182 6.00649 99.6332 6.00649C101.332 6.00649 102.748 4.69249 102.748 3.37848C102.748 -0.563533 97.6509 0.22487 95.8102 4.42969Z"
    fill="black" />
  <path
    d="M106.854 4.95524C105.155 8.63446 105.438 9.94846 108.837 14.9417C113.651 22.0373 113.792 25.4537 109.12 23.8769C107.138 23.0885 105.58 23.3513 105.58 24.6653C105.58 28.3445 108.553 30.1841 112.093 28.6073C116.766 26.2421 116.483 18.3581 111.668 11.5253C107.845 6.26925 107.845 6.26925 110.96 6.00645C112.66 6.00645 114.075 4.69244 114.075 3.37844C114.075 -0.826379 108.978 0.224825 106.854 4.95524Z"
    fill="black" />
  <path
    d="M61.6868 9.68568C61.6868 11.7881 60.8373 13.8905 59.9878 14.4161C58.7134 15.2045 58.855 16.7813 60.6957 20.1977C62.9612 24.6653 63.2443 24.6653 65.5098 20.1977C67.3505 16.7813 67.4921 15.2045 66.2178 14.4161C65.3682 13.8905 64.5187 11.7881 64.5187 9.68568C64.5187 7.58327 63.9523 6.00646 63.1028 6.00646C62.3948 6.00646 61.6868 7.58327 61.6868 9.68568Z"
    fill="black" />
</svg>
