<svg width="239" height="31" viewBox="0 0 239 31" fill="none" xmlns="http://www.w3.org/2000/svg">
  <path
    d="M0.618469 15.2045V29.6586H9.82189H19.0253V15.2045C19.0253 7.32048 18.4589 0.750456 17.6094 0.750456C16.9014 0.750456 16.1935 6.00648 16.1935 12.5765C16.1935 21.2489 15.6271 24.4025 14.0696 24.4025C12.5121 24.4025 11.9458 21.2489 11.9458 12.5765C11.9458 3.90407 11.3794 0.750456 9.82189 0.750456C8.12279 0.750456 7.9812 3.11567 8.68916 12.5765C9.39711 23.6141 9.25552 24.4025 6.28211 24.4025C3.45029 24.4025 3.16711 23.3513 3.73347 12.5765C4.01665 4.42967 3.59188 0.750456 2.45915 0.750456C1.18483 0.750456 0.618469 5.21807 0.618469 15.2045Z"
    fill="black" />
  <path
    d="M24.2642 14.1533C21.7155 26.7678 21.9987 34.9146 24.6889 27.0306C26.388 21.7745 30.0694 21.5117 31.6269 26.505C32.3349 28.8702 33.4676 30.1842 33.8924 29.133C35.3083 26.505 30.3526 0.750464 28.5119 0.750464C27.5208 0.750464 25.6801 6.79489 24.2642 14.1533ZM29.3614 13.8905C29.7862 17.0441 29.3614 19.1465 28.2287 19.1465C27.096 19.1465 26.6712 17.0441 27.096 13.8905C27.5208 10.9997 28.0871 8.63449 28.2287 8.63449C28.3703 8.63449 28.9367 10.9997 29.3614 13.8905Z"
    fill="black" />
  <path
    d="M37.4321 15.2045C37.4321 28.8702 37.7153 29.6586 40.8303 29.6586C44.3701 29.6586 48.7594 23.6141 48.7594 18.6209C48.7594 17.3069 46.9187 14.6789 44.5117 13.1021C39.2728 9.42289 38.9896 6.00648 43.9453 6.00648C45.9276 6.00648 47.2019 4.95527 46.6355 3.37847C46.2108 1.80166 43.9453 0.750456 41.5383 0.750456C37.4321 0.750456 37.4321 1.01326 37.4321 15.2045ZM44.5117 20.4605C44.5117 22.5629 43.9453 24.4025 43.2374 24.4025C41.3967 24.4025 40.1224 20.1977 41.2551 18.0953C42.8126 15.2045 44.5117 16.5185 44.5117 20.4605Z"
    fill="black" />
  <path
    d="M52.2992 11.2625C51.7328 17.0441 50.7417 22.3001 50.0337 23.3513C48.0515 25.4538 48.4762 29.6586 50.8833 29.6586C52.016 29.6586 53.2903 25.9794 53.8567 20.4605C54.2815 15.4673 55.2726 11.2625 55.839 11.2625C56.4053 11.2625 57.3965 15.4673 57.8212 20.4605C58.3876 26.2422 59.6619 29.6586 60.9362 29.6586C62.2106 29.6586 62.7769 28.0818 62.3522 26.2422C61.9274 24.6653 60.7946 18.0953 59.8035 11.7881C57.5381 -2.92875 53.5735 -3.45436 52.2992 11.2625Z"
    fill="black" />
  <path
    d="M65.892 4.42966C63.4849 9.68568 64.4761 24.6653 67.4495 28.0817C69.007 29.9214 71.1308 29.9214 73.8211 28.0817C76.9361 26.2421 77.9272 23.8769 78.2104 16.5185C78.6352 10.2113 77.9272 6.53207 76.2281 4.16686C72.8299 -0.30076 67.8742 -0.30076 65.892 4.42966ZM74.9538 15.2045C74.9538 21.7745 74.3874 23.0885 71.414 23.0885C69.1486 23.0885 67.7327 21.5117 67.4495 18.3581C66.5999 10.4741 68.299 5.48086 71.6972 6.53207C74.2458 7.05767 74.9538 8.89727 74.9538 15.2045Z"
    fill="black" />
  <path
    d="M82.1749 14.4161C82.458 28.0817 85.573 36.4914 85.573 23.3513C85.573 18.3581 86.281 16.5185 88.4049 16.5185C90.5287 16.5185 91.2367 18.3581 91.2367 23.0885C91.2367 26.7677 91.9446 29.6586 92.6526 29.6586C93.5021 29.6586 94.0685 23.0885 94.0685 15.2045C94.0685 4.42966 93.5021 0.750448 92.0862 0.750448C90.8119 0.750448 90.3871 2.59005 90.8119 6.00647C91.3783 9.94848 90.8119 11.2625 88.5465 11.2625C86.5642 11.2625 85.573 9.68568 85.573 6.00647C85.573 3.11566 84.7235 0.750448 83.874 0.750448C82.5996 0.750448 82.0333 4.95526 82.1749 14.4161Z"
    fill="black" />
  <path
    d="M98.3163 15.2045C98.3163 28.3446 98.5995 29.6586 101.573 29.6586C106.245 29.6586 108.511 25.7166 107.944 18.8837C107.661 14.6789 106.387 12.3137 104.263 11.7881C101.714 10.9997 101.007 9.68569 101.573 5.74368C101.998 2.59006 101.573 0.750456 100.299 0.750456C98.8826 0.750456 98.3163 4.42967 98.3163 15.2045ZM105.396 20.7233C105.396 22.8257 104.405 24.4025 103.272 24.4025C101.148 24.4025 100.299 18.8837 101.998 15.7301C103.414 13.3649 105.396 16.2557 105.396 20.7233Z"
    fill="black" />
  <path
    d="M110.068 15.2045C109.927 26.2422 110.352 29.6586 111.909 29.6586C113.325 29.6586 113.891 25.9794 113.891 15.2045C113.891 5.21807 113.325 0.750456 112.051 0.750456C110.776 0.750456 110.21 5.21807 110.068 15.2045Z"
    fill="black" />
  <path
    d="M123.236 14.4161C123.52 28.0817 126.635 36.2286 126.635 23.3513C126.635 18.0953 127.342 16.5185 129.608 16.5185C131.732 16.5185 132.298 17.8325 132.015 22.3001C131.732 25.1909 132.44 28.3445 133.431 28.8701C134.705 29.6586 135.13 25.9793 135.13 15.4673C135.13 3.90406 134.705 0.750445 132.865 0.750445C131.307 0.750445 130.882 2.32725 131.59 6.00646C132.298 10.2113 131.873 11.2625 129.608 11.2625C127.626 11.2625 126.635 9.68568 126.635 6.00646C126.635 3.11565 125.785 0.750445 124.794 0.750445C123.52 0.750445 123.095 4.95526 123.236 14.4161Z"
    fill="black" />
  <path
    d="M137.962 3.37847C137.962 4.69247 138.953 6.00648 140.086 6.00648C141.643 6.00648 142.209 9.16009 142.209 17.8325C142.209 24.4025 142.917 29.6586 143.625 29.6586C144.475 29.6586 145.041 24.4025 145.041 17.8325C145.041 9.16009 145.608 6.00648 147.165 6.00648C148.298 6.00648 149.289 4.69247 149.289 3.37847C149.289 1.80166 146.74 0.750456 143.625 0.750456C140.51 0.750456 137.962 1.80166 137.962 3.37847Z"
    fill="black" />
  <path
    d="M151.13 15.2045C150.988 23.0885 151.413 29.6586 152.262 29.6586C152.97 29.6586 153.537 25.7166 153.537 20.9861V12.5765L157.077 20.4605C159.484 25.9794 160.475 27.0306 160.616 24.1397C160.616 21.7745 161.607 18.3581 162.74 16.5185C164.581 13.6277 164.864 14.4161 164.864 21.5117C164.864 25.9794 165.572 29.6586 166.28 29.6586C167.13 29.6586 167.696 23.0885 167.696 15.2045C167.696 -0.826349 165.289 -4.24276 162.032 7.32048C161.041 10.9997 159.767 13.8905 159.2 13.8905C158.634 13.8905 157.501 10.9997 156.652 7.32048C153.82 -3.97996 151.413 -0.563549 151.13 15.2045Z"
    fill="black" />
  <path
    d="M171.66 15.2045L171.236 29.6586H175.908C178.882 29.6586 180.439 28.3446 180.439 25.9794C180.439 23.6141 179.448 22.8257 177.607 23.6141C175.059 24.9281 174.775 23.6141 174.775 12.8393C174.775 -4.24276 172.368 -2.40316 171.66 15.2045Z"
    fill="black" />
  <path
    d="M193.182 4.69244C191.766 7.84606 192.191 9.68566 195.165 14.6789C199.837 22.5629 199.837 25.4537 195.306 23.8769C193.324 23.0885 191.766 23.3513 191.766 24.6653C191.766 28.3445 194.74 30.1841 198.28 28.6073C202.952 26.2421 202.669 18.3581 197.855 11.5253C194.032 6.26925 194.032 6.26925 197.147 6.00645C198.846 6.00645 200.262 4.69244 200.262 3.37844C200.262 -0.563575 195.165 0.224828 193.182 4.69244Z"
    fill="black" />
  <path
    d="M206.209 4.95526C202.386 9.94848 202.244 19.4093 205.784 25.4537C208.757 30.447 214.563 30.1842 215.412 25.1909C215.837 23.3513 214.846 22.8257 212.863 23.6141C209.182 25.4537 205.925 18.6209 206.917 11.2625C207.483 7.58327 208.899 6.00647 211.872 6.00647C214.279 6.00647 215.695 4.95526 215.129 3.37846C213.855 -0.563557 209.89 0.224846 206.209 4.95526Z"
    fill="black" />
  <path
    d="M218.81 4.42969C216.686 9.1601 218.102 15.7301 221.642 17.3069C225.748 19.4093 225.04 25.191 220.792 23.6142C218.527 22.8258 217.394 23.6142 217.677 25.4538C218.527 30.1842 224.615 28.8702 226.315 23.6142C227.589 19.6721 227.164 17.8325 223.624 12.3137C219.66 6.26929 219.518 6.00649 222.633 6.00649C224.332 6.00649 225.748 4.69249 225.748 3.37848C225.748 -0.563533 220.651 0.22487 218.81 4.42969Z"
    fill="black" />
  <path
    d="M229.854 4.95524C228.155 8.63446 228.438 9.94846 231.837 14.9417C236.651 22.0373 236.792 25.4537 232.12 23.8769C230.138 23.0885 228.58 23.3513 228.58 24.6653C228.58 28.3445 231.553 30.1841 235.093 28.6073C239.766 26.2421 239.483 18.3581 234.668 11.5253C230.845 6.26925 230.845 6.26925 233.96 6.00645C235.66 6.00645 237.075 4.69244 237.075 3.37844C237.075 -0.826379 231.978 0.224825 229.854 4.95524Z"
    fill="black" />
  <path
    d="M184.687 9.68568C184.687 11.7881 183.837 13.8905 182.988 14.4161C181.713 15.2045 181.855 16.7813 183.696 20.1977C185.961 24.6653 186.244 24.6653 188.51 20.1977C190.35 16.7813 190.492 15.2045 189.218 14.4161C188.368 13.8905 187.519 11.7881 187.519 9.68568C187.519 7.58327 186.952 6.00646 186.103 6.00646C185.395 6.00646 184.687 7.58327 184.687 9.68568Z"
    fill="black" />
</svg>
